<?xml version="1.0" standalone="no"?><!-- Generator: Gravit.io --><svg xmlns="http://www.w3.org/2000/svg" xmlns:xlink="http://www.w3.org/1999/xlink" style="isolation:isolate" viewBox="140.846 125.513 259.307 67.914" width="259.307" height="67.914"><g style="isolation:isolate" id="Layer 0"><linearGradient id="_lgradient_1" x1="79.50914652898953%" y1="10.105864770150475%" x2="-25.920584085305933%" y2="108.61586918750183%"><stop offset="0%" stop-opacity="1" style="stop-color:rgb(43,117,255)"/><stop offset="10%" stop-opacity="1" style="stop-color:rgb(47,113,240)"/><stop offset="20%" stop-opacity="1" style="stop-color:rgb(50,109,225)"/><stop offset="30.000000000000004%" stop-opacity="1" style="stop-color:rgb(53,105,210)"/><stop offset="40%" stop-opacity="1" style="stop-color:rgb(56,101,196)"/><stop offset="50%" stop-opacity="1" style="stop-color:rgb(59,97,181)"/><stop offset="60%" stop-opacity="1" style="stop-color:rgb(62,93,166)"/><stop offset="70%" stop-opacity="1" style="stop-color:rgb(65,89,152)"/><stop offset="80%" stop-opacity="1" style="stop-color:rgb(68,85,137)"/><stop offset="89.99999999999999%" stop-opacity="1" style="stop-color:rgb(71,81,122)"/><stop offset="99.99999999999999%" stop-opacity="1" style="stop-color:rgb(75,77,107)"/></linearGradient><path d=" M 144.045 125.513 C 143.185 125.513 142.361 125.86 141.759 126.474 L 141.759 126.474 C 141.157 127.089 140.828 127.92 140.847 128.78 L 140.847 128.78 L 140.847 131.187 C 140.847 132.959 142.273 134.401 144.045 134.42 L 144.045 134.42 L 149.341 134.42 C 151.828 134.42 153.845 136.436 153.845 138.924 L 153.845 138.924 C 153.845 141.412 151.828 143.428 149.341 143.428 L 149.341 143.428 L 144.045 143.428 C 143.197 143.428 142.384 143.765 141.783 144.365 L 141.783 144.365 C 141.184 144.965 140.847 145.778 140.847 146.626 L 140.847 146.626 L 140.847 151.44 C 140.846 152.29 141.179 153.105 141.775 153.71 L 141.775 153.71 L 150.785 162.823 C 151.322 163.345 151.485 164.141 151.196 164.832 L 151.196 164.832 C 150.908 165.523 150.226 165.967 149.478 165.952 L 149.478 165.952 L 144.045 165.952 C 142.331 165.95 140.921 167.3 140.847 169.013 L 140.847 169.013 L 140.847 171.969 C 140.847 173.736 142.278 175.168 144.045 175.168 L 144.045 175.168 L 149.341 175.168 C 151.828 175.168 153.845 177.185 153.845 179.672 L 153.845 179.672 C 153.845 182.16 151.828 184.177 149.341 184.177 L 149.341 184.177 L 144.045 184.177 C 142.278 184.177 140.847 185.609 140.847 187.375 L 140.847 187.375 L 140.847 190.057 C 140.847 191.823 142.278 193.255 144.045 193.255 L 144.045 193.255 C 152.71 193.324 174.752 193.255 174.614 193.427 L 174.614 193.427 C 190.038 193.414 203.513 183.004 207.42 168.084 L 207.42 168.084 C 207.653 167.126 207.432 166.116 206.821 165.343 L 206.821 165.343 C 206.209 164.57 205.276 164.123 204.291 164.129 L 204.291 164.129 L 199.03 164.129 C 197.834 164.129 196.689 163.655 195.844 162.81 L 195.844 162.81 C 194.999 161.965 194.525 160.819 194.525 159.625 L 194.525 159.625 C 194.599 157.19 196.594 155.256 199.03 155.258 L 199.03 155.258 L 204.463 155.258 C 205.447 155.264 206.381 154.817 206.993 154.044 L 206.993 154.044 C 207.604 153.272 207.825 152.26 207.592 151.303 L 207.592 151.303 C 203.863 136.174 190.3 125.534 174.718 125.513 L 174.718 125.513 L 144.045 125.513 Z " fill="url(#_lgradient_1)"/><path d=" M 237.674 167.947 L 226.149 167.947 L 226.149 128.832 L 237.298 128.832 L 237.298 128.832 Q 242.644 128.832 245.344 131.438 L 245.344 131.438 L 245.344 131.438 Q 248.044 134.044 248.044 139.256 L 248.044 139.256 L 248.044 139.256 Q 248.044 141.996 246.674 144.091 L 246.674 144.091 L 246.674 144.091 Q 245.304 146.187 242.967 147.342 L 242.967 147.342 L 242.967 147.342 Q 245.653 148.148 247.225 150.646 L 247.225 150.646 L 247.225 150.646 Q 248.796 153.145 248.796 156.664 L 248.796 156.664 L 248.796 156.664 Q 248.796 161.93 245.908 164.938 L 245.908 164.938 L 245.908 164.938 Q 243.021 167.947 237.674 167.947 L 237.674 167.947 Z  M 237.889 149.652 L 231.066 149.652 L 231.066 163.73 L 237.782 163.73 L 237.782 163.73 Q 240.576 163.73 242.215 161.889 L 242.215 161.889 L 242.215 161.889 Q 243.853 160.049 243.853 156.718 L 243.853 156.718 L 243.853 156.718 Q 243.853 149.652 237.889 149.652 L 237.889 149.652 Z  M 231.066 133.077 L 231.066 145.515 L 237.379 145.515 L 237.379 145.515 Q 239.931 145.515 241.503 143.796 L 241.503 143.796 L 241.503 143.796 Q 243.074 142.076 243.074 139.229 L 243.074 139.229 L 243.074 139.229 Q 243.074 136.005 241.65 134.541 L 241.65 134.541 L 241.65 134.541 Q 240.227 133.077 237.298 133.077 L 237.298 133.077 L 231.066 133.077 Z  M 274.909 145.649 L 274.909 149.867 L 261.074 149.867 L 261.074 163.73 L 277.193 163.73 L 277.193 167.947 L 256.157 167.947 L 256.157 128.832 L 276.924 128.832 L 276.924 133.077 L 261.074 133.077 L 261.074 145.649 L 274.909 145.649 Z  M 304.81 167.947 L 301.72 157.739 L 288.503 157.739 L 285.467 167.947 L 280.416 167.947 L 293.016 128.832 L 297.234 128.832 L 309.86 167.947 L 304.81 167.947 Z  M 295.111 135.709 L 289.792 153.494 L 300.458 153.494 L 295.111 135.709 Z  M 333.555 128.832 L 338.498 128.832 L 338.498 156.637 L 338.498 156.637 Q 338.444 162.198 335.274 165.341 L 335.274 165.341 L 335.274 165.341 Q 332.104 168.485 326.436 168.485 L 326.436 168.485 L 326.436 168.485 Q 320.633 168.485 317.57 165.409 L 317.57 165.409 L 317.57 165.409 Q 314.508 162.333 314.454 156.637 L 314.454 156.637 L 314.454 128.832 L 319.344 128.832 L 319.344 156.449 L 319.344 156.449 Q 319.344 160.398 321.023 162.346 L 321.023 162.346 L 321.023 162.346 Q 322.702 164.294 326.436 164.294 L 326.436 164.294 L 326.436 164.294 Q 330.197 164.294 331.876 162.346 L 331.876 162.346 L 331.876 162.346 Q 333.555 160.398 333.555 156.449 L 333.555 156.449 L 333.555 128.832 Z  M 368.936 128.832 L 368.936 133.077 L 358.647 133.077 L 358.647 167.947 L 353.731 167.947 L 353.731 133.077 L 343.468 133.077 L 343.468 128.832 L 368.936 128.832 Z  M 400.153 144.709 L 400.153 151.828 L 400.153 151.828 Q 400.153 159.834 396.741 164.159 L 396.741 164.159 L 396.741 164.159 Q 393.329 168.485 387.043 168.485 L 387.043 168.485 L 387.043 168.485 Q 380.998 168.485 377.492 164.28 L 377.492 164.28 L 377.492 164.28 Q 373.987 160.076 373.852 152.393 L 373.852 152.393 L 373.852 145.032 L 373.852 145.032 Q 373.852 137.187 377.318 132.741 L 377.318 132.741 L 377.318 132.741 Q 380.783 128.295 386.989 128.295 L 386.989 128.295 L 386.989 128.295 Q 393.168 128.295 396.62 132.553 L 396.62 132.553 L 396.62 132.553 Q 400.072 136.811 400.153 144.709 L 400.153 144.709 Z  M 395.237 152.312 L 395.237 144.978 L 395.237 144.978 Q 395.237 138.772 393.208 135.75 L 393.208 135.75 L 393.208 135.75 Q 391.18 132.727 386.989 132.727 L 386.989 132.727 L 386.989 132.727 Q 382.933 132.727 380.851 135.79 L 380.851 135.79 L 380.851 135.79 Q 378.769 138.853 378.742 144.817 L 378.742 144.817 L 378.742 151.828 L 378.742 151.828 Q 378.742 157.819 380.824 160.962 L 380.824 160.962 L 380.824 160.962 Q 382.906 164.106 387.043 164.106 L 387.043 164.106 L 387.043 164.106 Q 391.18 164.106 393.168 161.204 L 393.168 161.204 L 393.168 161.204 Q 395.156 158.303 395.237 152.312 L 395.237 152.312 Z " fill-rule="evenodd" fill="rgb(53,53,53)"/><path d=" M 396.036 189.022 L 396.036 189.022 L 396.036 189.022 Q 396.036 187.883 395.42 187.277 L 395.42 187.277 L 395.42 187.277 Q 394.803 186.67 393.193 186.095 L 393.193 186.095 L 393.193 186.095 Q 391.583 185.521 390.731 184.888 L 390.731 184.888 L 390.731 184.888 Q 389.88 184.256 389.456 183.446 L 389.456 183.446 L 389.456 183.446 Q 389.033 182.635 389.033 181.59 L 389.033 181.59 L 389.033 181.59 Q 389.033 179.782 390.24 178.611 L 390.24 178.611 L 390.24 178.611 Q 391.448 177.44 393.402 177.44 L 393.402 177.44 L 393.402 177.44 Q 394.74 177.44 395.786 178.041 L 395.786 178.041 L 395.786 178.041 Q 396.831 178.642 397.395 179.709 L 397.395 179.709 L 397.395 179.709 Q 397.96 180.775 397.96 182.05 L 397.96 182.05 L 396.036 182.05 L 396.036 182.05 Q 396.036 180.639 395.357 179.865 L 395.357 179.865 L 395.357 179.865 Q 394.678 179.092 393.402 179.092 L 393.402 179.092 L 393.402 179.092 Q 392.242 179.092 391.604 179.74 L 391.604 179.74 L 391.604 179.74 Q 390.967 180.388 390.967 181.559 L 390.967 181.559 L 390.967 181.559 Q 390.967 182.521 391.657 183.169 L 391.657 183.169 L 391.657 183.169 Q 392.347 183.817 393.789 184.329 L 393.789 184.329 L 393.789 184.329 Q 396.036 185.071 397.003 186.158 L 397.003 186.158 L 397.003 186.158 Q 397.97 187.245 397.97 189.001 L 397.97 189.001 L 397.97 189.001 Q 397.97 190.852 396.768 191.965 L 396.768 191.965 L 396.768 191.965 Q 395.566 193.078 393.496 193.078 L 393.496 193.078 L 393.496 193.078 Q 392.169 193.078 391.045 192.498 L 391.045 192.498 L 391.045 192.498 Q 389.921 191.918 389.279 190.867 L 389.279 190.867 L 389.279 190.867 Q 388.636 189.817 388.636 188.458 L 388.636 188.458 L 390.559 188.458 L 390.559 188.458 Q 390.559 189.869 391.348 190.653 L 391.348 190.653 L 391.348 190.653 Q 392.137 191.437 393.496 191.437 L 393.496 191.437 L 393.496 191.437 Q 394.761 191.437 395.399 190.789 L 395.399 190.789 L 395.399 190.789 Q 396.036 190.141 396.036 189.022 Z  M 234.77 189.022 L 234.77 189.022 L 234.77 189.022 Q 234.77 187.883 234.153 187.277 L 234.153 187.277 L 234.153 187.277 Q 233.536 186.67 231.927 186.095 L 231.927 186.095 L 231.927 186.095 Q 230.317 185.521 229.465 184.888 L 229.465 184.888 L 229.465 184.888 Q 228.613 184.256 228.19 183.446 L 228.19 183.446 L 228.19 183.446 Q 227.766 182.635 227.766 181.59 L 227.766 181.59 L 227.766 181.59 Q 227.766 179.782 228.974 178.611 L 228.974 178.611 L 228.974 178.611 Q 230.181 177.44 232.136 177.44 L 232.136 177.44 L 232.136 177.44 Q 233.474 177.44 234.519 178.041 L 234.519 178.041 L 234.519 178.041 Q 235.564 178.642 236.129 179.709 L 236.129 179.709 L 236.129 179.709 Q 236.693 180.775 236.693 182.05 L 236.693 182.05 L 234.77 182.05 L 234.77 182.05 Q 234.77 180.639 234.09 179.865 L 234.09 179.865 L 234.09 179.865 Q 233.411 179.092 232.136 179.092 L 232.136 179.092 L 232.136 179.092 Q 230.975 179.092 230.338 179.74 L 230.338 179.74 L 230.338 179.74 Q 229.7 180.388 229.7 181.559 L 229.7 181.559 L 229.7 181.559 Q 229.7 182.521 230.39 183.169 L 230.39 183.169 L 230.39 183.169 Q 231.08 183.817 232.522 184.329 L 232.522 184.329 L 232.522 184.329 Q 234.77 185.071 235.737 186.158 L 235.737 186.158 L 235.737 186.158 Q 236.704 187.245 236.704 189.001 L 236.704 189.001 L 236.704 189.001 Q 236.704 190.852 235.502 191.965 L 235.502 191.965 L 235.502 191.965 Q 234.299 193.078 232.23 193.078 L 232.23 193.078 L 232.23 193.078 Q 230.902 193.078 229.778 192.498 L 229.778 192.498 L 229.778 192.498 Q 228.655 191.918 228.012 190.867 L 228.012 190.867 L 228.012 190.867 Q 227.369 189.817 227.369 188.458 L 227.369 188.458 L 229.292 188.458 L 229.292 188.458 Q 229.292 189.869 230.082 190.653 L 230.082 190.653 L 230.082 190.653 Q 230.871 191.437 232.23 191.437 L 232.23 191.437 L 232.23 191.437 Q 233.495 191.437 234.132 190.789 L 234.132 190.789 L 234.132 190.789 Q 234.77 190.141 234.77 189.022 Z  M 255.045 177.649 L 258.16 185.291 L 261.275 177.649 L 263.439 177.649 L 259.111 187.193 L 259.111 192.869 L 257.198 192.869 L 257.198 187.193 L 252.87 177.649 L 255.045 177.649 Z  M 287.058 189.022 L 287.058 189.022 L 287.058 189.022 Q 287.058 187.883 286.442 187.277 L 286.442 187.277 L 286.442 187.277 Q 285.825 186.67 284.215 186.095 L 284.215 186.095 L 284.215 186.095 Q 282.605 185.521 281.753 184.888 L 281.753 184.888 L 281.753 184.888 Q 280.902 184.256 280.478 183.446 L 280.478 183.446 L 280.478 183.446 Q 280.055 182.635 280.055 181.59 L 280.055 181.59 L 280.055 181.59 Q 280.055 179.782 281.262 178.611 L 281.262 178.611 L 281.262 178.611 Q 282.47 177.44 284.424 177.44 L 284.424 177.44 L 284.424 177.44 Q 285.762 177.44 286.808 178.041 L 286.808 178.041 L 286.808 178.041 Q 287.853 178.642 288.417 179.709 L 288.417 179.709 L 288.417 179.709 Q 288.982 180.775 288.982 182.05 L 288.982 182.05 L 287.058 182.05 L 287.058 182.05 Q 287.058 180.639 286.379 179.865 L 286.379 179.865 L 286.379 179.865 Q 285.7 179.092 284.424 179.092 L 284.424 179.092 L 284.424 179.092 Q 283.264 179.092 282.626 179.74 L 282.626 179.74 L 282.626 179.74 Q 281.989 180.388 281.989 181.559 L 281.989 181.559 L 281.989 181.559 Q 281.989 182.521 282.679 183.169 L 282.679 183.169 L 282.679 183.169 Q 283.368 183.817 284.811 184.329 L 284.811 184.329 L 284.811 184.329 Q 287.058 185.071 288.025 186.158 L 288.025 186.158 L 288.025 186.158 Q 288.992 187.245 288.992 189.001 L 288.992 189.001 L 288.992 189.001 Q 288.992 190.852 287.79 191.965 L 287.79 191.965 L 287.79 191.965 Q 286.588 193.078 284.518 193.078 L 284.518 193.078 L 284.518 193.078 Q 283.191 193.078 282.067 192.498 L 282.067 192.498 L 282.067 192.498 Q 280.943 191.918 280.301 190.867 L 280.301 190.867 L 280.301 190.867 Q 279.658 189.817 279.658 188.458 L 279.658 188.458 L 281.581 188.458 L 281.581 188.458 Q 281.581 189.869 282.37 190.653 L 282.37 190.653 L 282.37 190.653 Q 283.159 191.437 284.518 191.437 L 284.518 191.437 L 284.518 191.437 Q 285.783 191.437 286.421 190.789 L 286.421 190.789 L 286.421 190.789 Q 287.058 190.141 287.058 189.022 Z  M 315.382 177.649 L 315.382 179.301 L 311.379 179.301 L 311.379 192.869 L 309.466 192.869 L 309.466 179.301 L 305.473 179.301 L 305.473 177.649 L 315.382 177.649 Z  M 339.912 184.193 L 339.912 185.834 L 334.528 185.834 L 334.528 191.228 L 340.8 191.228 L 340.8 192.869 L 332.615 192.869 L 332.615 177.649 L 340.696 177.649 L 340.696 179.301 L 334.528 179.301 L 334.528 184.193 L 339.912 184.193 Z  M 358.232 177.649 L 360.699 177.649 L 364.671 190.068 L 368.643 177.649 L 371.11 177.649 L 371.11 192.869 L 369.197 192.869 L 369.197 186.942 L 369.375 181.005 L 365.392 192.869 L 363.929 192.869 L 359.967 181.047 L 360.145 186.942 L 360.145 192.869 L 358.232 192.869 L 358.232 177.649 Z " fill-rule="evenodd" fill="rgb(0,0,0)"/></g></svg>